<?xml version="1.0" encoding="utf-8"?>
<!-- Generator: Adobe Illustrator 19.0.0, SVG Export Plug-In . SVG Version: 6.00 Build 0)  -->
<svg version="1.1" id="Capa_1" xmlns="http://www.w3.org/2000/svg" xmlns:xlink="http://www.w3.org/1999/xlink" x="0px" y="0px"
	 viewBox="-34 222 526.2 152.9" style="enable-background:new -34 222 526.2 152.9;" xml:space="preserve">
<style type="text/css">
	.st0{fill:#383838;}
</style>
<g id="XMLID_4_">
	<path id="XMLID_28_" d="M93.8,233.2c-1.6,3.6-3.5,7-5.2,10.5c-20.2,39.8-40.3,79.5-60.5,119.2c-0.2,0.4-0.4,0.8-0.6,1.2
		c-0.4-0.1-0.5-0.5-0.6-0.8c-3.2-6.7-6.4-13.4-9.6-20c-0.4-0.8-0.4-1.4,0-2.2c14.2-27.1,28.3-54.3,42.4-81.4
		c0.2-0.4,0.4-0.8,0.7-1.3c-2.4,0.5-4.7,1-6.9,1.5c-9.4,2-18.9,4.1-28.3,6.1c-0.8,0.2-1.5,0.1-2.2-0.4c-5.7-3.6-11.4-7.1-17.1-10.7
		c-0.3-0.2-0.5-0.3-1-0.6c1.8-0.5,3.4-0.9,5-1.2c27.5-6.6,55-13.1,82.6-19.6C92.9,233.2,93.4,232.9,93.8,233.2L93.8,233.2z"/>
	<path id="XMLID_27_" d="M125.9,323.4c-4.1-1.7-8-3.7-12-5.6c-9.9-4.7-19.8-9.4-29.6-14c-0.4-0.2-0.8-0.3-1.2-0.5
		c-2.1,4.1-4.2,8.1-6.2,12.2c-7.5,14.7-15,29.4-22.5,44.1c-0.3,0.5-0.5,1.1-1.3,1.3c-7.5,1.6-15,3.2-22.7,4.8
		c0.2-0.5,0.4-0.9,0.6-1.2c14.3-27.9,28.6-55.9,42.9-83.8c0.7-1.4,0.7-1.4,2.1-0.8c6,2.5,12,5,18,7.5c0.3,0.1,0.7,0.4,1.1,0.3
		c0.2-0.4,0-0.6-0.1-0.9c-3.2-9.2-6.4-18.4-9.5-27.6c-0.2-0.6-0.4-1.1,0-1.8c3.8-7.3,7.5-14.6,11.2-22c0.1-0.2,0.1-0.4,0.5-0.5
		c0.9,2.8,1.9,5.7,2.8,8.6c8.6,26.3,17.2,52.6,25.8,78.9C125.8,322.7,126.1,323,125.9,323.4L125.9,323.4z"/>
	<path id="XMLID_26_" d="M15,340c-3.3-3.4-6.2-6.9-8.6-10.7c-8-12.4-11.7-25.9-11-40.6c0.5-10.8,3.4-21,8.7-30.4
		c0.5-0.9,0.8-1,1.7-0.4c4.4,2.8,8.8,5.6,13.3,8.3c0.8,0.5,1,0.8,0.5,1.8c-9.4,18.7-8.2,36.6,3.7,53.9c0.5,0.8,0.7,1.3,0.2,2.2
		C20.7,329.2,17.9,334.5,15,340z"/>
	<path id="XMLID_25_" d="M57,360.1c-0.1-0.5,0.2-0.8,0.4-1.1c2.7-5.3,5.4-10.5,8-15.8c0.3-0.7,0.7-0.9,1.5-1
		c9.6-0.6,18.4-3.7,26.3-9.3c5.4-3.9,9.9-8.6,13.4-14.3c0.5-0.8,0.9-1,1.8-0.5c4.8,2.3,9.6,4.6,14.4,6.8c0.8,0.4,0.9,0.6,0.4,1.4
		c-10.4,17.2-25.3,28.2-44.9,32.6c-6.9,1.6-13.9,1.9-20.9,1.3C57.3,360.2,57.2,360.1,57,360.1z"/>
	<path id="XMLID_24_" d="M93.8,233.2c-0.1,0-0.1-0.1-0.1-0.2h0.1C93.9,233.1,93.8,233.2,93.8,233.2L93.8,233.2z"/>
	<path id="XMLID_23_" d="M125.9,323.5c0.1,0,0.1-0.1,0.2-0.1v0.1C126,323.5,126,323.5,125.9,323.5L125.9,323.5z"/>
</g>
<g id="XMLID_2_">
	<path id="XMLID_3_" d="M185,257v9.8h-13.8v41.1h-12.4v-41.1h-13.7V257H185z"/>
	<path id="XMLID_6_" d="M227.5,259.6c3.9,2.2,7,5.3,9.3,9.3s3.4,8.4,3.4,13.4s-1.1,9.5-3.4,13.5s-5.4,7.1-9.3,9.3
		c-3.9,2.2-8.2,3.3-13,3.3s-9.1-1.1-13-3.3s-7-5.3-9.3-9.3s-3.4-8.5-3.4-13.5s1.1-9.5,3.4-13.4c2.3-4,5.4-7.1,9.3-9.3
		c3.9-2.2,8.2-3.3,13-3.3C219.2,256.2,223.6,257.4,227.5,259.6z M204.8,271.6c-2.4,2.6-3.6,6.2-3.6,10.7s1.2,8,3.6,10.7
		c2.4,2.7,5.6,4,9.6,4s7.2-1.3,9.6-4c2.4-2.6,3.6-6.2,3.6-10.7s-1.2-8-3.6-10.7c-2.4-2.6-5.6-4-9.6-4
		C210.4,267.7,207.2,269,204.8,271.6z"/>
	<path id="XMLID_9_" d="M284.3,259.6c3.9,2.2,7,5.3,9.3,9.3s3.4,8.4,3.4,13.4s-1.1,9.5-3.4,13.5s-5.4,7.1-9.3,9.3
		c-3.9,2.2-8.2,3.3-13,3.3s-9.1-1.1-13-3.3c-3.9-2.2-7-5.3-9.3-9.3s-3.4-8.5-3.4-13.5s1.1-9.5,3.4-13.4c2.3-4,5.4-7.1,9.3-9.3
		c3.9-2.2,8.2-3.3,13-3.3C276,256.2,280.4,257.4,284.3,259.6z M261.6,271.6c-2.4,2.6-3.6,6.2-3.6,10.7s1.2,8,3.6,10.7
		c2.4,2.7,5.6,4,9.6,4s7.2-1.3,9.6-4c2.4-2.6,3.6-6.2,3.6-10.7s-1.2-8-3.6-10.7c-2.4-2.6-5.6-4-9.6-4
		C267.2,267.7,264,269,261.6,271.6z"/>
	<path id="XMLID_12_" d="M316.1,290.1V308h-12.3v-51h20c6,0,10.7,1.5,13.8,4.5c3.2,3,4.8,7,4.8,12.1c0,3.2-0.7,6-2.1,8.5
		s-3.5,4.4-6.3,5.8s-6.2,2.1-10.2,2.1h-7.7L316.1,290.1L316.1,290.1z M329.8,273.7c0-4.5-2.5-6.7-7.4-6.7h-6.3v13.2h6.3
		C327.4,280.2,329.8,278,329.8,273.7z"/>
	<path id="XMLID_15_" d="M360.7,298.5h16.4v9.4h-28.7V257h12.3L360.7,298.5L360.7,298.5z"/>
	<path id="XMLID_17_" d="M414.4,298.6h-19.1l-3.2,9.3h-13l18.7-50.5H412l18.6,50.5h-13.1L414.4,298.6z M411.2,289.3l-6.4-18.7
		l-6.4,18.7H411.2z"/>
	<path id="XMLID_20_" d="M479.4,257l-17.6,34v16.9h-12.4V291l-17.6-34h14l9.8,20.7l9.8-20.7H479.4z"/>
</g>
<g>
	<path class="st0" d="M203.5,320.8v3.4h-6v18.3h-4.3v-18.3h-6v-3.4H203.5z"/>
	<path class="st0" d="M210.1,320.8v12.7c0,1.7,0.4,3,1.1,3.8c0.7,0.9,1.8,1.3,3.2,1.3s2.5-0.4,3.2-1.3s1.1-2.1,1.1-3.8v-12.7h4.3
		v12.7c0,2-0.4,3.7-1.1,5.1c-0.7,1.4-1.8,2.4-3.1,3.1s-2.8,1-4.5,1c-2.6,0-4.7-0.8-6.2-2.3c-1.6-1.6-2.3-3.8-2.3-6.9v-12.7
		L210.1,320.8L210.1,320.8z"/>
	<path class="st0" d="M246.9,338.1h-8.7l-1.5,4.4h-4.6l8-21.5h5l8,21.5h-4.7L246.9,338.1z M245.7,334.8l-3.2-9.2l-3.2,9.2H245.7z
		 M247.2,316.1l-7.1,3.3v-3l7.1-3.7V316.1z"/>
	<path class="st0" d="M266.6,342.5l-5.1-8.5h-1.9v8.5h-4.3v-21.7h8.3c2.5,0,4.4,0.6,5.8,1.8c1.3,1.2,2,2.9,2,4.9
		c0,1.6-0.5,3-1.4,4.1s-2.2,1.8-4,2.2l5.4,8.7H266.6z M259.7,331h3.6c2.5,0,3.7-1.1,3.7-3.3c0-1-0.3-1.9-0.9-2.4
		c-0.6-0.6-1.5-0.9-2.8-0.9h-3.6V331L259.7,331z"/>
	<path class="st0" d="M278.6,324.2v5.6h7.7v3.3h-7.7v5.8h8.6v3.5h-13v-21.7h13v3.4h-8.6V324.2z"/>
	<path class="st0" d="M303.7,338.1H295l-1.5,4.4h-4.6l8-21.5h5l8,21.5h-4.6L303.7,338.1z M302.5,334.8l-3.2-9.2l-3.2,9.2H302.5z"/>
	<path class="st0" d="M336.6,337.3c-0.9,1.6-2.2,2.9-3.9,3.8c-1.7,0.9-3.7,1.4-6.1,1.4h-7.7v-21.7h7.7c2.4,0,4.4,0.4,6.1,1.3
		s3,2.2,3.9,3.8c0.9,1.6,1.4,3.5,1.4,5.7C337.9,333.8,337.5,335.7,336.6,337.3z M331.6,336.8c1.3-1.2,1.9-3,1.9-5.2s-0.6-4-1.9-5.2
		s-3.1-1.8-5.4-1.8h-3v14.1h3C328.5,338.6,330.3,338,331.6,336.8z"/>
	<path class="st0" d="M345.5,320.8v21.7h-4.3v-21.7H345.5z"/>
	<path class="st0" d="M366.1,322.5c1.7,1.3,2.9,3.1,3.4,5.3h-4.6c-0.4-1-1.1-1.8-2-2.4s-2-0.9-3.3-0.9s-2.4,0.3-3.3,0.9
		c-1,0.6-1.7,1.4-2.2,2.5s-0.8,2.3-0.8,3.8c0,2.3,0.6,4.1,1.8,5.3c1.2,1.3,2.9,1.9,5,1.9c1.6,0,2.9-0.5,4-1.4s1.8-2.2,2.2-3.8h-7.4
		v-3.1h11v4.2c-0.3,1.4-0.9,2.8-1.8,4s-2.1,2.2-3.5,2.9c-1.4,0.7-3.1,1.1-5,1.1c-2.1,0-4-0.5-5.6-1.4s-2.9-2.2-3.8-3.9
		c-0.9-1.7-1.3-3.6-1.3-5.7c0-2.2,0.4-4.1,1.3-5.7c0.9-1.7,2.1-3,3.8-3.9c1.6-0.9,3.5-1.4,5.6-1.4
		C362.2,320.5,364.4,321.2,366.1,322.5z"/>
	<path class="st0" d="M377.4,320.8v21.7h-4.3v-21.7H377.4z"/>
	<path class="st0" d="M396.1,320.8v3.4h-6v18.3h-4.3v-18.3h-6v-3.4H396.1z"/>
	<path class="st0" d="M411.8,338.1h-8.7l-1.5,4.4H397l8-21.5h5l8,21.5h-4.6L411.8,338.1z M410.6,334.8l-3.2-9.2l-3.2,9.2H410.6z"/>
	<path class="st0" d="M424.5,339.2h7.3v3.3h-11.6v-21.7h4.3L424.5,339.2L424.5,339.2z"/>
</g>
</svg>
