<?xml version="1.0" encoding="utf-8"?>
<!-- Generator: Adobe Illustrator 19.0.0, SVG Export Plug-In . SVG Version: 6.00 Build 0)  -->
<svg version="1.1" id="Capa_1" xmlns="http://www.w3.org/2000/svg" xmlns:xlink="http://www.w3.org/1999/xlink" x="0px" y="0px"
	 viewBox="-34 222 526.2 152.9" style="enable-background:new -34 222 526.2 152.9;" xml:space="preserve">
<style type="text/css">
	.st0{fill:#A7C93D;}
	.st1{fill:#383838;}
</style>
<g id="XMLID_4_">
	<path id="XMLID_28_" class="st0" d="M84.2,232.3c-1.6,3.6-3.5,7-5.2,10.5C58.8,282.6,38.7,322.3,18.5,362c-0.2,0.4-0.4,0.8-0.6,1.2
		c-0.4-0.1-0.5-0.5-0.6-0.8c-3.2-6.7-6.4-13.4-9.6-20c-0.4-0.8-0.4-1.4,0-2.2c14.2-27.1,28.3-54.3,42.4-81.4
		c0.2-0.4,0.4-0.8,0.7-1.3c-2.4,0.5-4.7,1-6.9,1.5c-9.4,2-18.9,4.1-28.3,6.1c-0.8,0.2-1.5,0.1-2.2-0.4C7.7,261.1,2,257.6-3.7,254
		c-0.3-0.2-0.5-0.3-1-0.6c1.8-0.5,3.4-0.9,5-1.2c27.5-6.6,55-13.1,82.6-19.6C83.3,232.3,83.8,232,84.2,232.3L84.2,232.3z"/>
	<path id="XMLID_27_" class="st0" d="M116.3,322.5c-4.1-1.7-8-3.7-12-5.6c-9.9-4.7-19.8-9.4-29.6-14c-0.4-0.2-0.8-0.3-1.2-0.5
		c-2.1,4.1-4.2,8.1-6.2,12.2c-7.5,14.7-15,29.4-22.5,44.1c-0.3,0.5-0.5,1.1-1.3,1.3c-7.5,1.6-15,3.2-22.7,4.8
		c0.2-0.5,0.4-0.9,0.6-1.2c14.3-27.9,28.6-55.9,42.9-83.8c0.7-1.4,0.7-1.4,2.1-0.8c6,2.5,12,5,18,7.5c0.3,0.1,0.7,0.4,1.1,0.3
		c0.2-0.4,0-0.6-0.1-0.9c-3.2-9.2-6.4-18.4-9.5-27.6c-0.2-0.6-0.4-1.1,0-1.8c3.8-7.3,7.5-14.6,11.2-22c0.1-0.2,0.1-0.4,0.5-0.5
		c0.9,2.8,1.9,5.7,2.8,8.6c8.6,26.3,17.2,52.6,25.8,78.9C116.2,321.8,116.5,322.1,116.3,322.5L116.3,322.5z"/>
	<path id="XMLID_26_" class="st0" d="M5.4,339.1c-3.3-3.4-6.2-6.9-8.6-10.7c-8-12.4-11.7-25.9-11-40.6c0.5-10.8,3.4-21,8.7-30.4
		c0.5-0.9,0.8-1,1.7-0.4c4.4,2.8,8.8,5.6,13.3,8.3c0.8,0.5,1,0.8,0.5,1.8c-9.4,18.7-8.2,36.6,3.7,53.9c0.5,0.8,0.7,1.3,0.2,2.2
		C11.1,328.3,8.3,333.6,5.4,339.1z"/>
	<path id="XMLID_25_" class="st0" d="M47.4,359.2c-0.1-0.5,0.2-0.8,0.4-1.1c2.7-5.3,5.4-10.5,8-15.8c0.3-0.7,0.7-0.9,1.5-1
		c9.6-0.6,18.4-3.7,26.3-9.3c5.4-3.9,9.9-8.6,13.4-14.3c0.5-0.8,0.9-1,1.8-0.5c4.8,2.3,9.6,4.6,14.4,6.8c0.8,0.4,0.9,0.6,0.4,1.4
		c-10.4,17.2-25.3,28.2-44.9,32.6c-6.9,1.6-13.9,1.9-20.9,1.3C47.7,359.3,47.6,359.2,47.4,359.2z"/>
	<path id="XMLID_24_" class="st0" d="M84.2,232.3c-0.1,0-0.1-0.1-0.1-0.2h0.1C84.3,232.2,84.2,232.3,84.2,232.3L84.2,232.3z"/>
	<path id="XMLID_23_" class="st0" d="M116.3,322.6c0.1,0,0.1-0.1,0.2-0.1v0.1C116.4,322.6,116.4,322.6,116.3,322.6L116.3,322.6z"/>
</g>
<g id="XMLID_2_">
	<path id="XMLID_3_" d="M175.4,256.1v9.8h-13.8V307h-12.4v-41.1h-13.7v-9.8H175.4z"/>
	<path id="XMLID_6_" d="M217.9,258.7c3.9,2.2,7,5.3,9.3,9.3s3.4,8.4,3.4,13.4s-1.1,9.5-3.4,13.5s-5.4,7.1-9.3,9.3
		c-3.9,2.2-8.2,3.3-13,3.3s-9.1-1.1-13-3.3s-7-5.3-9.3-9.3s-3.4-8.5-3.4-13.5s1.1-9.5,3.4-13.4c2.3-4,5.4-7.1,9.3-9.3
		c3.9-2.2,8.2-3.3,13-3.3C209.6,255.3,214,256.5,217.9,258.7z M195.2,270.7c-2.4,2.6-3.6,6.2-3.6,10.7s1.2,8,3.6,10.7
		c2.4,2.7,5.6,4,9.6,4s7.2-1.3,9.6-4c2.4-2.6,3.6-6.2,3.6-10.7s-1.2-8-3.6-10.7c-2.4-2.6-5.6-4-9.6-4
		C200.8,266.8,197.6,268.1,195.2,270.7z"/>
	<path id="XMLID_9_" d="M274.7,258.7c3.9,2.2,7,5.3,9.3,9.3s3.4,8.4,3.4,13.4s-1.1,9.5-3.4,13.5s-5.4,7.1-9.3,9.3
		c-3.9,2.2-8.2,3.3-13,3.3s-9.1-1.1-13-3.3s-7-5.3-9.3-9.3s-3.4-8.5-3.4-13.5s1.1-9.5,3.4-13.4c2.3-4,5.4-7.1,9.3-9.3
		c3.9-2.2,8.2-3.3,13-3.3C266.4,255.3,270.8,256.5,274.7,258.7z M252,270.7c-2.4,2.6-3.6,6.2-3.6,10.7s1.2,8,3.6,10.7
		c2.4,2.7,5.6,4,9.6,4s7.2-1.3,9.6-4c2.4-2.6,3.6-6.2,3.6-10.7s-1.2-8-3.6-10.7c-2.4-2.6-5.6-4-9.6-4
		C257.6,266.8,254.4,268.1,252,270.7z"/>
	<path id="XMLID_12_" d="M306.5,289.2v17.9h-12.3v-51h20c6,0,10.7,1.5,13.8,4.5c3.2,3,4.8,7,4.8,12.1c0,3.2-0.7,6-2.1,8.5
		c-1.4,2.5-3.5,4.4-6.3,5.8s-6.2,2.1-10.2,2.1h-7.7L306.5,289.2L306.5,289.2z M320.2,272.8c0-4.5-2.5-6.7-7.4-6.7h-6.3v13.2h6.3
		C317.8,279.3,320.2,277.1,320.2,272.8z"/>
	<path id="XMLID_15_" d="M351.1,297.6h16.4v9.4h-28.7v-50.9h12.3V297.6L351.1,297.6z"/>
	<path id="XMLID_17_" d="M404.8,297.7h-19.1l-3.2,9.3h-13l18.7-50.5h14.2L421,307h-13.1L404.8,297.7z M401.6,288.4l-6.4-18.7
		l-6.4,18.7H401.6z"/>
	<path id="XMLID_20_" d="M469.8,256.1l-17.6,34V307h-12.4v-16.9l-17.6-34h14l9.8,20.7l9.8-20.7H469.8z"/>
</g>
<g>
	<path class="st1" d="M193.9,319.9v3.4h-6v18.3h-4.3v-18.3h-6v-3.4H193.9z"/>
	<path class="st1" d="M200.5,319.9v12.7c0,1.7,0.4,3,1.1,3.8c0.7,0.9,1.8,1.3,3.2,1.3s2.5-0.4,3.2-1.3s1.1-2.1,1.1-3.8v-12.7h4.3
		v12.7c0,2-0.4,3.7-1.1,5.1c-0.7,1.4-1.8,2.4-3.1,3.1s-2.8,1-4.5,1c-2.6,0-4.7-0.8-6.2-2.3c-1.6-1.6-2.3-3.8-2.3-6.9v-12.7
		L200.5,319.9L200.5,319.9z"/>
	<path class="st1" d="M237.3,337.2h-8.7l-1.5,4.4h-4.6l8-21.5h5l8,21.5h-4.7L237.3,337.2z M236.1,333.9l-3.2-9.2l-3.2,9.2H236.1z
		 M237.6,315.2l-7.1,3.3v-3l7.1-3.7V315.2z"/>
	<path class="st1" d="M257,341.6l-5.1-8.5H250v8.5h-4.3v-21.7h8.3c2.5,0,4.4,0.6,5.8,1.8c1.3,1.2,2,2.9,2,4.9c0,1.6-0.5,3-1.4,4.1
		c-0.9,1.1-2.2,1.8-4,2.2l5.4,8.7H257z M250.1,330.1h3.6c2.5,0,3.7-1.1,3.7-3.3c0-1-0.3-1.9-0.9-2.4c-0.6-0.6-1.5-0.9-2.8-0.9h-3.6
		V330.1z"/>
	<path class="st1" d="M269,323.3v5.6h7.7v3.3H269v5.8h8.6v3.5h-13v-21.7h13v3.4H269V323.3z"/>
	<path class="st1" d="M294.1,337.2h-8.7l-1.5,4.4h-4.6l8-21.5h5l8,21.5h-4.6L294.1,337.2z M292.9,333.9l-3.2-9.2l-3.2,9.2H292.9z"/>
	<path class="st1" d="M327,336.4c-0.9,1.6-2.2,2.9-3.9,3.8c-1.7,0.9-3.7,1.4-6.1,1.4h-7.7v-21.7h7.7c2.4,0,4.4,0.4,6.1,1.3
		s3,2.2,3.9,3.8c0.9,1.6,1.4,3.5,1.4,5.7C328.3,332.9,327.9,334.8,327,336.4z M322,335.9c1.3-1.2,1.9-3,1.9-5.2s-0.6-4-1.9-5.2
		s-3.1-1.8-5.4-1.8h-3v14.1h3C318.9,337.7,320.7,337.1,322,335.9z"/>
	<path class="st1" d="M335.9,319.9v21.7h-4.3v-21.7H335.9z"/>
	<path class="st1" d="M356.5,321.6c1.7,1.3,2.9,3.1,3.4,5.3h-4.6c-0.4-1-1.1-1.8-2-2.4c-0.9-0.6-2-0.9-3.3-0.9s-2.4,0.3-3.3,0.9
		c-1,0.6-1.7,1.4-2.2,2.5s-0.8,2.3-0.8,3.8c0,2.3,0.6,4.1,1.8,5.3c1.2,1.3,2.9,1.9,5,1.9c1.6,0,2.9-0.5,4-1.4
		c1.1-0.9,1.8-2.2,2.2-3.8h-7.4v-3.1h11v4.2c-0.3,1.4-0.9,2.8-1.8,4c-0.9,1.2-2.1,2.2-3.5,2.9c-1.4,0.7-3.1,1.1-5,1.1
		c-2.1,0-4-0.5-5.6-1.4c-1.6-0.9-2.9-2.2-3.8-3.9c-0.9-1.7-1.3-3.6-1.3-5.7c0-2.2,0.4-4.1,1.3-5.7c0.9-1.7,2.1-3,3.8-3.9
		c1.6-0.9,3.5-1.4,5.6-1.4C352.6,319.6,354.8,320.3,356.5,321.6z"/>
	<path class="st1" d="M367.8,319.9v21.7h-4.3v-21.7H367.8z"/>
	<path class="st1" d="M386.5,319.9v3.4h-6v18.3h-4.3v-18.3h-6v-3.4H386.5z"/>
	<path class="st1" d="M402.2,337.2h-8.7l-1.5,4.4h-4.6l8-21.5h5l8,21.5h-4.6L402.2,337.2z M401,333.9l-3.2-9.2l-3.2,9.2H401z"/>
	<path class="st1" d="M414.9,338.3h7.3v3.3h-11.6v-21.7h4.3V338.3L414.9,338.3z"/>
</g>
</svg>
