<?xml version="1.0" encoding="utf-8"?>
<!-- Generator: Adobe Illustrator 19.0.0, SVG Export Plug-In . SVG Version: 6.00 Build 0)  -->
<svg version="1.1" id="Capa_1" xmlns="http://www.w3.org/2000/svg" xmlns:xlink="http://www.w3.org/1999/xlink" x="0px" y="0px"
	 viewBox="-34 343.3 526.2 152.9" style="enable-background:new -34 343.3 526.2 152.9;" xml:space="preserve">
<style type="text/css">
	.st0{fill:#010101;}
	.st1{fill:#383838;}
</style>
<g id="XMLID_4_">
	<path id="XMLID_28_" class="st0" d="M84.4,355.3c-1.6,3.6-3.5,7-5.2,10.5C59,405.6,38.9,445.3,18.7,485c-0.2,0.4-0.4,0.8-0.6,1.2
		c-0.4-0.1-0.5-0.5-0.6-0.8c-3.2-6.7-6.4-13.4-9.6-20c-0.4-0.8-0.4-1.4,0-2.2c14.2-27.1,28.3-54.3,42.4-81.4
		c0.2-0.4,0.4-0.8,0.7-1.3c-2.4,0.5-4.7,1-6.9,1.5c-9.4,2-18.9,4.1-28.3,6.1c-0.8,0.2-1.5,0.1-2.2-0.4c-5.7-3.6-11.4-7.1-17.1-10.7
		c-0.3-0.2-0.5-0.3-1-0.6c1.8-0.5,3.4-0.9,5-1.2c27.5-6.6,55-13.1,82.6-19.6C83.5,355.3,84,355,84.4,355.3L84.4,355.3z"/>
	<path id="XMLID_27_" class="st0" d="M116.5,445.5c-4.1-1.7-8-3.7-12-5.6c-9.9-4.7-19.8-9.4-29.6-14c-0.4-0.2-0.8-0.3-1.2-0.5
		c-2.1,4.1-4.2,8.1-6.2,12.2C60,452.3,52.5,467,45,481.7c-0.3,0.5-0.5,1.1-1.3,1.3c-7.5,1.6-15,3.2-22.7,4.8
		c0.2-0.5,0.4-0.9,0.6-1.2c14.3-27.9,28.6-55.9,42.9-83.8c0.7-1.4,0.7-1.4,2.1-0.8c6,2.5,12,5,18,7.5c0.3,0.1,0.7,0.4,1.1,0.3
		c0.2-0.4,0-0.6-0.1-0.9c-3.2-9.2-6.4-18.4-9.5-27.6c-0.2-0.6-0.4-1.1,0-1.8c3.8-7.3,7.5-14.6,11.2-22c0.1-0.2,0.1-0.4,0.5-0.5
		c0.9,2.8,1.9,5.7,2.8,8.6c8.6,26.3,17.2,52.6,25.8,78.9C116.4,444.8,116.7,445.1,116.5,445.5L116.5,445.5z"/>
	<path id="XMLID_26_" class="st0" d="M5.6,462.1c-3.3-3.4-6.2-6.9-8.6-10.7c-8-12.4-11.7-25.9-11-40.6c0.5-10.8,3.4-21,8.7-30.4
		c0.5-0.9,0.8-1,1.7-0.4c4.4,2.8,8.8,5.6,13.3,8.3c0.8,0.5,1,0.8,0.5,1.8C0.8,408.8,2,426.7,13.9,444c0.5,0.8,0.7,1.3,0.2,2.2
		C11.3,451.3,8.5,456.6,5.6,462.1z"/>
	<path id="XMLID_25_" class="st0" d="M47.6,482.2c-0.1-0.5,0.2-0.8,0.4-1.1c2.7-5.3,5.4-10.5,8-15.8c0.3-0.7,0.7-0.9,1.5-1
		c9.6-0.6,18.4-3.7,26.3-9.3c5.4-3.9,9.9-8.6,13.4-14.3c0.5-0.8,0.9-1,1.8-0.5c4.8,2.3,9.6,4.6,14.4,6.8c0.8,0.4,0.9,0.6,0.4,1.4
		c-10.4,17.2-25.3,28.2-44.9,32.6c-6.9,1.6-13.9,1.9-20.9,1.3C47.9,482.3,47.8,482.2,47.6,482.2z"/>
	<path id="XMLID_24_" class="st0" d="M84.4,355.3c-0.1,0-0.1-0.1-0.1-0.2h0.1C84.5,355.2,84.4,355.3,84.4,355.3L84.4,355.3z"/>
	<path id="XMLID_23_" class="st0" d="M116.5,445.6c0.1,0,0.1-0.1,0.2-0.1v0.1C116.6,445.6,116.6,445.6,116.5,445.6L116.5,445.6z"/>
</g>
<g id="XMLID_2_">
	<path id="XMLID_3_" d="M175.6,379.1v9.8h-13.8V430h-12.4v-41.1h-13.7v-9.8H175.6z"/>
	<path id="XMLID_6_" d="M218.1,381.7c3.9,2.2,7,5.3,9.3,9.3s3.4,8.4,3.4,13.4s-1.1,9.5-3.4,13.5s-5.4,7.1-9.3,9.3
		c-3.9,2.2-8.2,3.3-13,3.3c-4.8,0-9.1-1.1-13-3.3s-7-5.3-9.3-9.3c-2.3-4-3.4-8.5-3.4-13.5s1.1-9.5,3.4-13.4c2.3-4,5.4-7.1,9.3-9.3
		c3.9-2.2,8.2-3.3,13-3.3C209.8,378.3,214.2,379.5,218.1,381.7z M195.4,393.7c-2.4,2.6-3.6,6.2-3.6,10.7s1.2,8,3.6,10.7
		c2.4,2.7,5.6,4,9.6,4s7.2-1.3,9.6-4c2.4-2.6,3.6-6.2,3.6-10.7s-1.2-8-3.6-10.7c-2.4-2.6-5.6-4-9.6-4
		C201,389.8,197.8,391.1,195.4,393.7z"/>
	<path id="XMLID_9_" d="M274.9,381.7c3.9,2.2,7,5.3,9.3,9.3s3.4,8.4,3.4,13.4s-1.1,9.5-3.4,13.5s-5.4,7.1-9.3,9.3
		c-3.9,2.2-8.2,3.3-13,3.3s-9.1-1.1-13-3.3s-7-5.3-9.3-9.3s-3.4-8.5-3.4-13.5s1.1-9.5,3.4-13.4c2.3-4,5.4-7.1,9.3-9.3
		c3.9-2.2,8.2-3.3,13-3.3C266.6,378.3,271,379.5,274.9,381.7z M252.2,393.7c-2.4,2.6-3.6,6.2-3.6,10.7s1.2,8,3.6,10.7
		c2.4,2.7,5.6,4,9.6,4s7.2-1.3,9.6-4c2.4-2.6,3.6-6.2,3.6-10.7s-1.2-8-3.6-10.7c-2.4-2.6-5.6-4-9.6-4
		C257.8,389.8,254.6,391.1,252.2,393.7z"/>
	<path id="XMLID_12_" d="M306.7,412.2v17.9h-12.3v-51h20c6,0,10.7,1.5,13.8,4.5c3.2,3,4.8,7,4.8,12.1c0,3.2-0.7,6-2.1,8.5
		s-3.5,4.4-6.3,5.8s-6.2,2.1-10.2,2.1h-7.7V412.2z M320.4,395.8c0-4.5-2.5-6.7-7.4-6.7h-6.3v13.2h6.3
		C318,402.3,320.4,400.1,320.4,395.8z"/>
	<path id="XMLID_15_" d="M351.3,420.6h16.4v9.4H339v-50.9h12.3L351.3,420.6L351.3,420.6z"/>
	<path id="XMLID_17_" d="M405,420.7h-19.1l-3.2,9.3h-13l18.7-50.5h14.2l18.6,50.5h-13.1L405,420.7z M401.8,411.4l-6.4-18.7
		l-6.4,18.7C389,411.4,401.8,411.4,401.8,411.4z"/>
	<path id="XMLID_20_" d="M470,379.1l-17.6,34V430H440v-16.9l-17.6-34h14l9.8,20.7l9.8-20.7H470z"/>
</g>
<g>
	<path class="st1" d="M194.1,442.9v3.4h-6v18.3h-4.3v-18.3h-6v-3.4H194.1z"/>
	<path class="st1" d="M200.7,442.9v12.7c0,1.7,0.4,3,1.1,3.8c0.7,0.9,1.8,1.3,3.2,1.3c1.4,0,2.5-0.4,3.2-1.3
		c0.7-0.9,1.1-2.1,1.1-3.8v-12.7h4.3v12.7c0,2-0.4,3.7-1.1,5.1c-0.7,1.4-1.8,2.4-3.1,3.1c-1.3,0.7-2.8,1-4.5,1
		c-2.6,0-4.7-0.8-6.2-2.3c-1.6-1.6-2.3-3.8-2.3-6.9v-12.7H200.7z"/>
	<path class="st1" d="M237.5,460.2h-8.7l-1.5,4.4h-4.6l8-21.5h5l8,21.5H239L237.5,460.2z M236.3,456.9l-3.2-9.2l-3.2,9.2H236.3z
		 M237.8,438.2l-7.1,3.3v-3l7.1-3.7V438.2z"/>
	<path class="st1" d="M257.2,464.6l-5.1-8.5h-1.9v8.5h-4.3v-21.7h8.3c2.5,0,4.4,0.6,5.8,1.8c1.3,1.2,2,2.9,2,4.9
		c0,1.6-0.5,3-1.4,4.1c-0.9,1.1-2.2,1.8-4,2.2l5.4,8.7H257.2z M250.3,453.1h3.6c2.5,0,3.7-1.1,3.7-3.3c0-1-0.3-1.9-0.9-2.4
		c-0.6-0.6-1.5-0.9-2.8-0.9h-3.6V453.1z"/>
	<path class="st1" d="M269.2,446.3v5.6h7.7v3.3h-7.7v5.8h8.6v3.5h-13v-21.7h13v3.4H269.2z"/>
	<path class="st1" d="M294.3,460.2h-8.7l-1.5,4.4h-4.6l8-21.5h5l8,21.5h-4.6L294.3,460.2z M293.1,456.9l-3.2-9.2l-3.2,9.2H293.1z"/>
	<path class="st1" d="M327.2,459.4c-0.9,1.6-2.2,2.9-3.9,3.8s-3.7,1.4-6.1,1.4h-7.7v-21.7h7.7c2.4,0,4.4,0.4,6.1,1.3
		c1.7,0.9,3,2.2,3.9,3.8c0.9,1.6,1.4,3.5,1.4,5.7C328.5,455.9,328.1,457.8,327.2,459.4z M322.2,458.9c1.3-1.2,1.9-3,1.9-5.2
		c0-2.2-0.6-4-1.9-5.2c-1.3-1.2-3.1-1.8-5.4-1.8h-3v14.1h3C319.1,460.7,320.9,460.1,322.2,458.9z"/>
	<path class="st1" d="M336.1,442.9v21.7h-4.3v-21.7H336.1z"/>
	<path class="st1" d="M356.7,444.6c1.7,1.3,2.9,3.1,3.4,5.3h-4.6c-0.4-1-1.1-1.8-2-2.4s-2-0.9-3.3-0.9c-1.3,0-2.4,0.3-3.3,0.9
		c-1,0.6-1.7,1.4-2.2,2.5c-0.5,1.1-0.8,2.3-0.8,3.8c0,2.3,0.6,4.1,1.8,5.3c1.2,1.3,2.9,1.9,5,1.9c1.6,0,2.9-0.5,4-1.4
		c1.1-0.9,1.8-2.2,2.2-3.8h-7.4v-3.1h11v4.2c-0.3,1.4-0.9,2.8-1.8,4c-0.9,1.2-2.1,2.2-3.5,2.9c-1.4,0.7-3.1,1.1-5,1.1
		c-2.1,0-4-0.5-5.6-1.4c-1.6-0.9-2.9-2.2-3.8-3.9c-0.9-1.7-1.3-3.6-1.3-5.7c0-2.2,0.4-4.1,1.3-5.7c0.9-1.7,2.1-3,3.8-3.9
		c1.6-0.9,3.5-1.4,5.6-1.4C352.8,442.6,355,443.3,356.7,444.6z"/>
	<path class="st1" d="M368,442.9v21.7h-4.3v-21.7H368z"/>
	<path class="st1" d="M386.7,442.9v3.4h-6v18.3h-4.3v-18.3h-6v-3.4H386.7z"/>
	<path class="st1" d="M402.4,460.2h-8.7l-1.5,4.4h-4.6l8-21.5h5l8,21.5h-4.6L402.4,460.2z M401.2,456.9l-3.2-9.2l-3.2,9.2H401.2z"/>
	<path class="st1" d="M415.1,461.3h7.3v3.3h-11.6v-21.7h4.3V461.3z"/>
</g>
</svg>
